<svg version="1.1" xmlns="http://www.w3.org/2000/svg" xmlns:xlink="http://www.w3.org/1999/xlink" width="221.10571" height="221.79205" viewBox="0,0,221.10571,221.79205"><g transform="translate(-129.44714,-69.10398)"><g data-paper-data="{&quot;isPaintingLayer&quot;:true}" fill-rule="nonzero" stroke="#000000" stroke-width="7.5" stroke-linecap="butt" stroke-linejoin="miter" stroke-miterlimit="10" stroke-dasharray="" stroke-dashoffset="0" style="mix-blend-mode: normal"><path d="M240.94544,277.06525c-25.38373,0 -45.96133,-42.29311 -45.96133,-94.46429c0,-52.17118 20.57759,-94.46429 45.96133,-94.46429c25.38373,0 45.96133,42.29311 45.96133,94.46429c0,52.17118 -20.57759,94.46429 -45.96133,94.46429z" fill="none"/><path d="M219.45508,180c0,-11.34665 9.19828,-20.54492 20.54492,-20.54492c11.34665,0 20.54492,9.19828 20.54492,20.54492c0,11.34665 -9.19828,20.54492 -20.54492,20.54492c-11.34665,0 -20.54492,-9.19828 -20.54492,-20.54492z" fill="#000000"/><path d="M307.74178,247.20286c-17.94901,17.94901 -62.40531,2.59383 -99.29591,-34.29677c-36.8906,-36.8906 -52.24578,-81.3469 -34.29677,-99.29591c17.94901,-17.94901 62.40531,-2.59383 99.29591,34.29677c36.8906,36.8906 52.24578,81.3469 34.29677,99.29591z" fill="none"/><path d="M335.40972,182.60096c0,25.38373 -42.2931,45.96133 -94.46429,45.96133c-52.17119,0 -94.46429,-20.5776 -94.46429,-45.96133c0,-25.38373 42.2931,-45.96133 94.46429,-45.96133c52.17119,0 94.46429,20.5776 94.46429,45.96133z" fill="none"/><path d="M307.74178,113.61018c17.94901,17.94901 2.59383,62.40531 -34.29677,99.29591c-36.8906,36.8906 -81.3469,52.24578 -99.29591,34.29677c-17.94901,-17.94901 -2.59383,-62.40531 34.29677,-99.29591c36.8906,-36.8906 81.3469,-52.24578 99.29591,-34.29677z" fill="none"/><path d="M227.93594,85.98579c0,-7.2525 5.87931,-13.13181 13.13181,-13.13181c7.2525,0 13.13181,5.87931 13.13181,13.13181c0,7.2525 -5.87931,13.13181 -13.13181,13.13181c-7.2525,0 -13.13181,-5.87931 -13.13181,-13.13181z" fill="#000000"/><path d="M290.54645,113.36053c0,-7.25249 5.87931,-13.1318 13.1318,-13.1318c7.2525,0 13.13181,5.87931 13.13181,13.13181c0,7.25249 -5.87932,13.13181 -13.13181,13.13181c-7.25249,0 -13.1318,-5.87931 -13.1318,-13.13181z" fill="#000000"/><path d="M320.53925,178.51269c0,-7.2525 5.87931,-13.1318 13.1318,-13.1318c7.2525,0 13.13181,5.87931 13.13181,13.1318c0,7.25249 -5.87931,13.13181 -13.13181,13.13181c-7.2525,0 -13.1318,-5.87932 -13.1318,-13.13181z" fill="#000000"/><path d="M298.23303,246.45582c0,-7.2525 5.87931,-13.13181 13.1318,-13.13181c7.2525,0 13.13181,5.87931 13.13181,13.13181c0,7.2525 -5.87931,13.13181 -13.13181,13.13181c-7.2525,0 -13.1318,-5.87931 -13.1318,-13.13181z" fill="#000000"/><path d="M227.79383,274.01421c0,-7.2525 5.87931,-13.1318 13.1318,-13.1318c7.2525,0 13.13181,5.87931 13.13181,13.1318c0,7.2525 -5.87931,13.13181 -13.13181,13.13181c-7.2525,0 -13.1318,-5.87931 -13.1318,-13.13181z" fill="#000000"/><path d="M156.89182,247.6623c0,-7.2525 5.87931,-13.1318 13.1318,-13.1318c7.2525,0 13.13181,5.87931 13.13181,13.1318c0,7.2525 -5.87932,13.13181 -13.13181,13.13181c-7.2525,0 -13.1318,-5.87931 -13.1318,-13.13181z" fill="#000000"/><path d="M133.19715,181.46281c0,-7.2525 5.87931,-13.1318 13.13181,-13.1318c7.2525,0 13.13181,5.87931 13.13181,13.1318c0,7.2525 -5.87931,13.13181 -13.13181,13.13181c-7.2525,0 -13.13181,-5.87931 -13.13181,-13.13181z" fill="#000000"/><path d="M161.80083,113.3377c0,-7.2525 5.87931,-13.13181 13.1318,-13.13181c7.2525,0 13.13181,5.87931 13.13181,13.13181c0,7.2525 -5.87931,13.13181 -13.13181,13.13181c-7.2525,0 -13.1318,-5.87932 -13.1318,-13.13181z" fill="#000000"/></g></g></svg>